<svg width="32" height="32" viewBox="0 0 32 32" fill="none" xmlns="http://www.w3.org/2000/svg">
<path d="M28 16.25C30.0711 16.25 31.75 17.9289 31.75 20V28C31.75 30.0711 30.0711 31.75 28 31.75H16C13.9289 31.75 12.25 30.0711 12.25 28V20C12.25 17.9289 13.9289 16.25 16 16.25H28ZM16 18.75C15.3096 18.75 14.75 19.3096 14.75 20V28C14.75 28.6904 15.3096 29.25 16 29.25H28C28.6904 29.25 29.25 28.6904 29.25 28V20C29.25 19.3096 28.6904 18.75 28 18.75H16ZM22 9.25C24.0711 9.25 25.75 10.9289 25.75 13V13.75H23.25V13C23.25 12.3096 22.6904 11.75 22 11.75H10C9.30964 11.75 8.75 12.3096 8.75 13V21C8.75 21.6047 9.17948 22.1088 9.75 22.2246V24.7402C7.79561 24.6116 6.25 22.987 6.25 21V13C6.25 10.9289 7.92893 9.25 10 9.25H22ZM16 2.25C18.0711 2.25 19.75 3.92893 19.75 6V6.75H17.25V6C17.25 5.30964 16.6904 4.75 16 4.75H4C3.30964 4.75 2.75 5.30964 2.75 6V14C2.75 14.6047 3.17948 15.1088 3.75 15.2246V17.7402C1.79561 17.6116 0.25 15.987 0.25 14V6C0.25 3.92893 1.92893 2.25 4 2.25H16Z" fill="#FBFBFE"/>
</svg>
