<svg width="32" height="32" viewBox="0 0 32 32" fill="none" xmlns="http://www.w3.org/2000/svg">
<path d="M22 9C24.2091 9 26 10.7909 26 13V14H23V13C23 12.4477 22.5523 12 22 12H10C9.44772 12 9 12.4477 9 13V21C9 21.5523 9.44772 22 10 22V25L9.89673 24.9988C7.73532 24.944 6 23.1746 6 21V13C6 10.7909 7.79086 9 10 9H22Z" fill="#5B5B66"/>
<path d="M16 2C18.2091 2 20 3.79086 20 6V7H17V6C17 5.44772 16.5523 5 16 5H4C3.44772 5 3 5.44772 3 6V14C3 14.5523 3.44772 15 4 15V18L3.89673 17.9988C1.73532 17.944 0 16.1746 0 14V6C0 3.79086 1.79086 2 4 2H16Z" fill="#5B5B66"/>
<path fill-rule="evenodd" clip-rule="evenodd" d="M28 19H16C15.4477 19 15 19.4477 15 20V28C15 28.5523 15.4477 29 16 29H28C28.5523 29 29 28.5523 29 28V20C29 19.4477 28.5523 19 28 19ZM16 16C13.7909 16 12 17.7909 12 20V28C12 30.2091 13.7909 32 16 32H28C30.2091 32 32 30.2091 32 28V20C32 17.7909 30.2091 16 28 16H16Z" fill="#5B5B66"/>
</svg>
